M48
;Layer_Color=9474304
;FILE_FORMAT=2:5
INCH,LZ
;TYPE=PLATED
T1F00S00C0.03150
T2F00S00C0.03346
T3F00S00C0.03543
T4F00S00C0.11811
%
T01
X00215Y0015
X00315
X0071Y00145
X0081
X0098Y0015
X0108
X01245Y00155
X01345
T02
X0052Y0007
Y0037
X00885Y0143
X0102
Y0173
X00885
T03
X0051Y0067
Y0077
X0047Y0111
X0037
X00705Y01125
X00805
X00905
X01275Y01165
Y01265
Y01365
Y01465
Y01565
Y01665
Y01765
X00715Y01715
Y01615
Y01515
Y01415
X00385Y0172
X00285
X01275Y01065
Y00965
Y00865
Y00765
X0027Y0111
X0017
X00185Y0172
X00715Y01815
Y01915
X01275Y01865
T04
X00075Y0008
X01505
X00115Y0203
X0147Y02015
M30
