G04 Layer_Physical_Order=2*
G04 Layer_Color=16711680*
%FSLAX25Y25*%
%MOIN*%
G70*
G01*
G75*
%ADD10C,0.03000*%
%ADD11C,0.06000*%
%ADD12R,0.05905X0.05905*%
%ADD13C,0.05905*%
%ADD14R,0.05905X0.05905*%
%ADD15C,0.05512*%
%ADD16C,0.06299*%
D10*
X60500Y122500D02*
X70500Y112500D01*
X60500Y122500D02*
Y160500D01*
X71500Y171500D01*
X123500Y112500D02*
X127500Y116500D01*
X90500Y112500D02*
X123500D01*
X48500D02*
X70500D01*
X47000Y111000D02*
X48500Y112500D01*
X71500Y151500D02*
X80000D01*
X88500Y143000D01*
X124000Y180000D02*
X127500Y176500D01*
X92500Y180000D02*
X124000D01*
X81000Y191500D02*
X92500Y180000D01*
X71500Y191500D02*
X81000D01*
X118500Y156500D02*
X127500D01*
X102000Y173000D02*
X118500Y156500D01*
X88500Y143000D02*
X102000D01*
X87000Y171500D02*
X88500Y173000D01*
X71500Y171500D02*
X87000D01*
X6000Y149500D02*
X28500Y172000D01*
X6000Y76000D02*
Y149500D01*
Y76000D02*
X15000Y67000D01*
X51000D01*
X48000Y181500D02*
X71500D01*
X38500Y172000D02*
X48000Y181500D01*
X51000Y77000D02*
X80500Y106500D01*
Y112500D01*
X37000Y170500D02*
X38500Y172000D01*
X37000Y111000D02*
Y170500D01*
Y91000D02*
Y111000D01*
Y91000D02*
X51000Y77000D01*
X124500Y15500D02*
X148000Y39000D01*
Y86000D01*
X127500Y106500D02*
X148000Y86000D01*
X127500Y96500D02*
X142000Y82000D01*
Y59000D02*
Y82000D01*
X98000Y15000D02*
X142000Y59000D01*
X127500Y86500D02*
X137000Y77000D01*
Y69000D02*
Y77000D01*
X134000Y66000D02*
X137000Y69000D01*
X122500Y66000D02*
X134000D01*
X71000Y14500D02*
X122500Y66000D01*
X106000Y76500D02*
X127500D01*
X57000Y27500D02*
X106000Y76500D01*
X34000Y27500D02*
X57000D01*
X21500Y15000D02*
X34000Y27500D01*
X116000Y7000D02*
X126000D01*
X88500D02*
X116000D01*
X108000Y15000D02*
X116000Y7000D01*
X52000D02*
X88500D01*
X81000Y14500D02*
X88500Y7000D01*
X126000D02*
X134500Y15500D01*
X39500Y7000D02*
X52000D01*
X31500Y15000D02*
X39500Y7000D01*
X51000Y38000D02*
X52000Y37000D01*
X51000Y38000D02*
Y67000D01*
X108000Y15000D02*
Y15500D01*
X134500D02*
Y17000D01*
D11*
X150500Y8000D02*
D03*
X7500D02*
D03*
X147000Y201500D02*
D03*
X11500Y203000D02*
D03*
D12*
X70500Y112500D02*
D03*
X38500Y172000D02*
D03*
X17000Y111000D02*
D03*
D13*
X80500Y112500D02*
D03*
X90500D02*
D03*
X28500Y172000D02*
D03*
X18500D02*
D03*
X47000Y111000D02*
D03*
X37000D02*
D03*
X27000D02*
D03*
X51000Y67000D02*
D03*
X71500Y151500D02*
D03*
Y161500D02*
D03*
Y171500D02*
D03*
Y181500D02*
D03*
Y191500D02*
D03*
X127500Y186500D02*
D03*
Y176500D02*
D03*
Y166500D02*
D03*
Y156500D02*
D03*
Y146500D02*
D03*
Y136500D02*
D03*
Y126500D02*
D03*
Y116500D02*
D03*
Y106500D02*
D03*
Y96500D02*
D03*
Y86500D02*
D03*
D14*
X51000Y77000D02*
D03*
X71500Y141500D02*
D03*
X127500Y76500D02*
D03*
D15*
X52000Y37000D02*
D03*
Y7000D02*
D03*
X88500Y173000D02*
D03*
Y143000D02*
D03*
X102000D02*
D03*
Y173000D02*
D03*
D16*
X124500Y15500D02*
D03*
X134500D02*
D03*
X98000Y15000D02*
D03*
X108000D02*
D03*
X71000Y14500D02*
D03*
X81000D02*
D03*
X21500Y15000D02*
D03*
X31500D02*
D03*
M02*
