G04 Layer_Color=65535*
%FSLAX25Y25*%
%MOIN*%
G70*
G01*
G75*
%ADD17C,0.00500*%
%ADD18C,0.00787*%
%ADD19C,0.01000*%
D17*
X135209Y37154D02*
G03*
X123791Y37154I-5709J0D01*
G01*
X108709Y36654D02*
G03*
X97291Y36654I-5709J0D01*
G01*
X81709Y36154D02*
G03*
X70291Y36154I-5709J0D01*
G01*
X32209Y36654D02*
G03*
X20791Y36654I-5709J0D01*
G01*
X120839Y7626D02*
X138161D01*
X120839D02*
Y32823D01*
X138161D01*
Y7626D02*
Y32823D01*
X123791D02*
Y37154D01*
X135209Y32823D02*
Y37154D01*
X94339Y7126D02*
X111661D01*
X94339D02*
Y32323D01*
X111661D01*
Y7126D02*
Y32323D01*
X97291D02*
Y36654D01*
X108709Y32323D02*
Y36654D01*
X67339Y6626D02*
X84661D01*
X67339D02*
Y31823D01*
X84661D01*
Y6626D02*
Y31823D01*
X70291D02*
Y36154D01*
X81709Y31823D02*
Y36154D01*
X17839Y7126D02*
X35161D01*
X17839D02*
Y32323D01*
X35161D01*
Y7126D02*
Y32323D01*
X20791D02*
Y36654D01*
X32209Y32323D02*
Y36654D01*
D18*
X65500Y107500D02*
X95500D01*
Y117500D01*
X65500D02*
X95500D01*
X65500Y107500D02*
Y117500D01*
X13500Y177000D02*
X43500D01*
X13500Y167000D02*
Y177000D01*
Y167000D02*
X43500D01*
Y177000D01*
X12000Y106000D02*
Y116000D01*
X52000D01*
X12000Y106000D02*
X52000D01*
Y116000D01*
X46000Y62000D02*
X56000D01*
X46000D02*
Y82000D01*
X56000D01*
Y62000D02*
Y82000D01*
X49000Y32000D02*
X52000D01*
X49000Y12000D02*
Y32000D01*
Y12000D02*
X55000D01*
Y32000D01*
X52000D02*
X55000D01*
X52000Y11100D02*
Y12000D01*
Y32000D02*
Y32900D01*
X85500Y168000D02*
X88500D01*
X85500Y148000D02*
Y168000D01*
Y148000D02*
X91500D01*
Y168000D01*
X88500D02*
X91500D01*
X88500Y147100D02*
Y148000D01*
Y168000D02*
Y168900D01*
X102000Y148000D02*
X105000D01*
Y168000D01*
X99000D02*
X105000D01*
X99000Y148000D02*
Y168000D01*
Y148000D02*
X102000D01*
Y168000D02*
Y168900D01*
Y147100D02*
Y148000D01*
X66500Y196500D02*
X76500D01*
X66500Y136500D02*
X76500D01*
X66500D02*
Y196500D01*
X76500Y136500D02*
Y196500D01*
X122500Y79000D02*
Y191500D01*
Y71500D02*
Y79000D01*
Y71500D02*
X132500D01*
Y191500D01*
X122500D02*
X132500D01*
D19*
X23500Y181999D02*
X25499D01*
X24500D01*
Y179000D01*
X26499Y181999D02*
X27499D01*
X26999D01*
Y179000D01*
X26499D01*
X27499D01*
X28998Y181999D02*
Y179000D01*
X30998D01*
X31997Y181999D02*
X33997D01*
X32997D01*
Y179000D01*
X125500Y24500D02*
Y27499D01*
X126999D01*
X127499Y26999D01*
Y26000D01*
X126999Y25500D01*
X125500D01*
X126500D02*
X127499Y24500D01*
X130498Y27499D02*
X128499D01*
Y24500D01*
X130498D01*
X128499Y26000D02*
X129499D01*
X131498Y27499D02*
Y24500D01*
X132998D01*
X133497Y25000D01*
Y26999D01*
X132998Y27499D01*
X131498D01*
X51000Y26000D02*
X53999D01*
Y24500D01*
X53499Y24001D01*
X52500D01*
X52000Y24500D01*
Y26000D01*
Y25000D02*
X51000Y24001D01*
X53499Y23001D02*
X53999Y22501D01*
Y21501D01*
X53499Y21002D01*
X52999D01*
X52500Y21501D01*
Y22001D01*
Y21501D01*
X52000Y21002D01*
X51500D01*
X51000Y21501D01*
Y22501D01*
X51500Y23001D01*
X87500Y161000D02*
X90499D01*
Y159501D01*
X89999Y159001D01*
X88999D01*
X88500Y159501D01*
Y161000D01*
Y160000D02*
X87500Y159001D01*
Y156002D02*
Y158001D01*
X89499Y156002D01*
X89999D01*
X90499Y156501D01*
Y157501D01*
X89999Y158001D01*
X103000Y158000D02*
X100001D01*
Y159500D01*
X100501Y159999D01*
X101500D01*
X102000Y159500D01*
Y158000D01*
Y159000D02*
X103000Y159999D01*
Y160999D02*
Y161999D01*
Y161499D01*
X100001D01*
X100501Y160999D01*
X43500Y65500D02*
X40501D01*
Y67000D01*
X41001Y67499D01*
X42000D01*
X42500Y67000D01*
Y65500D01*
X40501Y69999D02*
Y68999D01*
X41001Y68499D01*
X43000D01*
X43500Y68999D01*
Y69999D01*
X43000Y70498D01*
X41001D01*
X40501Y69999D01*
Y71498D02*
X43500D01*
X42500Y72498D01*
X43500Y73497D01*
X40501D01*
Y76496D02*
Y74497D01*
X43500D01*
Y76496D01*
X42000Y74497D02*
Y75497D01*
X43500Y77496D02*
X40501D01*
Y78996D01*
X41001Y79496D01*
X42000D01*
X42500Y78996D01*
Y77496D01*
Y78496D02*
X43500Y79496D01*
X13500Y38499D02*
X14500D01*
X14000D01*
Y35500D01*
X13500D01*
X14500D01*
X15999D02*
Y38499D01*
X17999Y35500D01*
Y38499D01*
X18998D02*
Y35500D01*
X20498D01*
X20998Y36000D01*
Y37999D01*
X20498Y38499D01*
X18998D01*
X21997D02*
X22997D01*
X22497D01*
Y35500D01*
X21997D01*
X22997D01*
X26496Y37999D02*
X25996Y38499D01*
X24996D01*
X24496Y37999D01*
Y36000D01*
X24996Y35500D01*
X25996D01*
X26496Y36000D01*
X27496Y35500D02*
Y37499D01*
X28495Y38499D01*
X29495Y37499D01*
Y35500D01*
Y36999D01*
X27496D01*
X30494Y38499D02*
X32494D01*
X31494D01*
Y35500D01*
X34993Y38499D02*
X33993D01*
X33494Y37999D01*
Y36000D01*
X33993Y35500D01*
X34993D01*
X35493Y36000D01*
Y37999D01*
X34993Y38499D01*
X36493Y35500D02*
Y38499D01*
X37992D01*
X38492Y37999D01*
Y36999D01*
X37992Y36500D01*
X36493D01*
X37492D02*
X38492Y35500D01*
X99999Y25999D02*
X99499Y26499D01*
X98500D01*
X98000Y25999D01*
Y24000D01*
X98500Y23500D01*
X99499D01*
X99999Y24000D01*
Y24999D01*
X99000D01*
X100999Y23500D02*
Y26499D01*
X102499D01*
X102998Y25999D01*
Y24999D01*
X102499Y24500D01*
X100999D01*
X101999D02*
X102998Y23500D01*
X105997Y26499D02*
X103998D01*
Y23500D01*
X105997D01*
X103998Y24999D02*
X104998D01*
X108996Y26499D02*
X106997D01*
Y23500D01*
X108996D01*
X106997Y24999D02*
X107997D01*
X109996Y23500D02*
Y26499D01*
X111995Y23500D01*
Y26499D01*
X117501Y113499D02*
Y111500D01*
X119000D01*
Y112500D01*
Y111500D01*
X120500D01*
Y114499D02*
X117501D01*
Y115999D01*
X118001Y116498D01*
X119000D01*
X119500Y115999D01*
Y114499D01*
Y115499D02*
X120500Y116498D01*
X117501Y118998D02*
Y117998D01*
X118001Y117498D01*
X120000D01*
X120500Y117998D01*
Y118998D01*
X120000Y119497D01*
X118001D01*
X117501Y118998D01*
X120500Y120497D02*
X117501D01*
X118501Y121497D01*
X117501Y122496D01*
X120500D01*
Y126495D02*
X118501D01*
X117501Y127495D01*
X118501Y128495D01*
X120500D01*
X119000D01*
Y126495D01*
X120500Y129494D02*
X117501D01*
Y130994D01*
X118001Y131493D01*
X119000D01*
X119500Y130994D01*
Y129494D01*
Y130494D02*
X120500Y131493D01*
X117501Y132493D02*
X120500D01*
Y133993D01*
X120000Y134493D01*
X118001D01*
X117501Y133993D01*
Y132493D01*
Y135492D02*
X120000D01*
X120500Y135992D01*
Y136992D01*
X120000Y137492D01*
X117501D01*
Y138491D02*
Y139491D01*
Y138991D01*
X120500D01*
Y138491D01*
Y139491D01*
Y140990D02*
X117501D01*
X120500Y142990D01*
X117501D01*
Y145489D02*
Y144489D01*
X118001Y143990D01*
X120000D01*
X120500Y144489D01*
Y145489D01*
X120000Y145989D01*
X118001D01*
X117501Y145489D01*
X20000Y121499D02*
Y118500D01*
X21499D01*
X21999Y119000D01*
Y120999D01*
X21499Y121499D01*
X20000D01*
X22999D02*
X23999D01*
X23499D01*
Y118500D01*
X22999D01*
X23999D01*
X27498Y120999D02*
X26998Y121499D01*
X25998D01*
X25498Y120999D01*
Y120499D01*
X25998Y120000D01*
X26998D01*
X27498Y119500D01*
Y119000D01*
X26998Y118500D01*
X25998D01*
X25498Y119000D01*
X28497Y118500D02*
Y121499D01*
X29997D01*
X30497Y120999D01*
Y120000D01*
X29997Y119500D01*
X28497D01*
X31496Y121499D02*
Y118500D01*
X33496D01*
X34495D02*
Y120499D01*
X35495Y121499D01*
X36495Y120499D01*
Y118500D01*
Y120000D01*
X34495D01*
X37494Y121499D02*
Y120999D01*
X38494Y120000D01*
X39494Y120999D01*
Y121499D01*
X38494Y120000D02*
Y118500D01*
X73500Y123499D02*
Y120500D01*
X74999D01*
X75499Y121000D01*
Y121500D01*
X74999Y122000D01*
X73500D01*
X74999D01*
X75499Y122499D01*
Y122999D01*
X74999Y123499D01*
X73500D01*
X76499D02*
Y121000D01*
X76999Y120500D01*
X77999D01*
X78498Y121000D01*
Y123499D01*
X79498D02*
X81497D01*
Y122999D01*
X79498Y121000D01*
Y120500D01*
X81497D01*
X82497Y123499D02*
X84496D01*
Y122999D01*
X82497Y121000D01*
Y120500D01*
X84496D01*
X87495Y123499D02*
X85496D01*
Y120500D01*
X87495D01*
X85496Y122000D02*
X86496D01*
X88495Y120500D02*
Y123499D01*
X89995D01*
X90495Y122999D01*
Y122000D01*
X89995Y121500D01*
X88495D01*
X89495D02*
X90495Y120500D01*
X72000Y27499D02*
Y24500D01*
X73500D01*
X73999Y25000D01*
Y25500D01*
X73500Y26000D01*
X72000D01*
X73500D01*
X73999Y26499D01*
Y26999D01*
X73500Y27499D01*
X72000D01*
X74999D02*
Y24500D01*
X76998D01*
X77998Y27499D02*
Y25000D01*
X78498Y24500D01*
X79498D01*
X79997Y25000D01*
Y27499D01*
X82996D02*
X80997D01*
Y24500D01*
X82996D01*
X80997Y26000D02*
X81997D01*
X81999Y179000D02*
X79000D01*
Y177500D01*
X79500Y177001D01*
X80000D01*
X80500Y177500D01*
Y179000D01*
Y177500D01*
X80999Y177001D01*
X81499D01*
X81999Y177500D01*
Y179000D01*
Y176001D02*
X79000D01*
Y174002D01*
X81999Y173002D02*
X79500D01*
X79000Y172502D01*
Y171502D01*
X79500Y171003D01*
X81999D01*
Y168004D02*
Y170003D01*
X79000D01*
Y168004D01*
X80500Y170003D02*
Y169003D01*
X81999Y167004D02*
Y165005D01*
Y166004D01*
X79000D01*
X81999Y162505D02*
Y163505D01*
X81499Y164005D01*
X79500D01*
X79000Y163505D01*
Y162505D01*
X79500Y162005D01*
X81499D01*
X81999Y162505D01*
Y159506D02*
Y160506D01*
X81499Y161006D01*
X79500D01*
X79000Y160506D01*
Y159506D01*
X79500Y159007D01*
X81499D01*
X81999Y159506D01*
Y158007D02*
Y156007D01*
Y157007D01*
X79000D01*
X81999Y155008D02*
X79000D01*
X80500D01*
Y153008D01*
X81999D01*
X79000D01*
X81999Y149010D02*
X79000D01*
X80500D01*
Y147010D01*
X81999D01*
X79000D01*
X81499Y144011D02*
X81999Y144511D01*
Y145511D01*
X81499Y146011D01*
X79500D01*
X79000Y145511D01*
Y144511D01*
X79500Y144011D01*
X81499Y143012D02*
X81999Y142512D01*
Y141512D01*
X81499Y141012D01*
X79500D01*
X79000Y141512D01*
Y142512D01*
X79500Y143012D01*
X81499D01*
X81999Y138013D02*
Y140013D01*
X80500D01*
X80999Y139013D01*
Y138513D01*
X80500Y138013D01*
X79500D01*
X79000Y138513D01*
Y139513D01*
X79500Y140013D01*
X52499Y141499D02*
X51999Y141999D01*
X51000D01*
X50500Y141499D01*
Y140999D01*
X51000Y140499D01*
X51999D01*
X52499Y140000D01*
Y139500D01*
X51999Y139000D01*
X51000D01*
X50500Y139500D01*
X53499Y141999D02*
X55498D01*
X54499D01*
Y139000D01*
X56498D02*
Y140999D01*
X57498Y141999D01*
X58497Y140999D01*
Y139000D01*
Y140499D01*
X56498D01*
X59497Y141999D02*
X61496D01*
X60497D01*
Y139000D01*
X64495Y141999D02*
X62496D01*
Y139000D01*
X64495D01*
X62496Y140499D02*
X63496D01*
X58500Y150000D02*
Y152999D01*
X60000D01*
X60499Y152499D01*
Y151499D01*
X60000Y151000D01*
X58500D01*
X59500D02*
X60499Y150000D01*
X61499Y152999D02*
X63498Y150000D01*
Y152999D02*
X61499Y150000D01*
X59000Y162999D02*
X60999D01*
X60000D01*
Y160000D01*
X61999Y162999D02*
X63998Y160000D01*
Y162999D02*
X61999Y160000D01*
X58499Y172999D02*
X57999Y173499D01*
X57000D01*
X56500Y172999D01*
Y171000D01*
X57000Y170500D01*
X57999D01*
X58499Y171000D01*
Y172000D01*
X57500D01*
X59499Y170500D02*
Y173499D01*
X61498Y170500D01*
Y173499D01*
X62498D02*
Y170500D01*
X63998D01*
X64497Y171000D01*
Y172999D01*
X63998Y173499D01*
X62498D01*
X57000Y182499D02*
Y180500D01*
X58000Y179500D01*
X58999Y180500D01*
Y182499D01*
X61998Y181999D02*
X61499Y182499D01*
X60499D01*
X59999Y181999D01*
Y180000D01*
X60499Y179500D01*
X61499D01*
X61998Y180000D01*
X64997Y181999D02*
X64498Y182499D01*
X63498D01*
X62998Y181999D01*
Y180000D01*
X63498Y179500D01*
X64498D01*
X64997Y180000D01*
X60499Y193499D02*
X58500D01*
Y190500D01*
X60499D01*
X58500Y191999D02*
X59500D01*
X61499Y190500D02*
Y193499D01*
X63498Y190500D01*
Y193499D01*
X82499Y104000D02*
X80500D01*
X79500Y103000D01*
X80500Y102001D01*
X82499D01*
X81999Y99002D02*
X82499Y99501D01*
Y100501D01*
X81999Y101001D01*
X80000D01*
X79500Y100501D01*
Y99501D01*
X80000Y99002D01*
X81999Y96003D02*
X82499Y96502D01*
Y97502D01*
X81999Y98002D01*
X80000D01*
X79500Y97502D01*
Y96502D01*
X80000Y96003D01*
X91999Y103501D02*
X92499Y104000D01*
Y105000D01*
X91999Y105500D01*
X91499D01*
X91000Y105000D01*
Y104000D01*
X90500Y103501D01*
X90000D01*
X89500Y104000D01*
Y105000D01*
X90000Y105500D01*
X92499Y102501D02*
Y101501D01*
Y102001D01*
X89500D01*
Y102501D01*
Y101501D01*
X91999Y98002D02*
X92499Y98502D01*
Y99502D01*
X91999Y100002D01*
X90000D01*
X89500Y99502D01*
Y98502D01*
X90000Y98002D01*
X91000D01*
Y99002D01*
X89500Y97003D02*
X92499D01*
X89500Y95003D01*
X92499D01*
X89500Y94004D02*
X91499D01*
X92499Y93004D01*
X91499Y92004D01*
X89500D01*
X91000D01*
Y94004D01*
X92499Y91005D02*
X89500D01*
Y89005D01*
X72499Y101501D02*
X72999Y102000D01*
Y103000D01*
X72499Y103500D01*
X70500D01*
X70000Y103000D01*
Y102000D01*
X70500Y101501D01*
X71500D01*
Y102500D01*
X70000Y100501D02*
X72999D01*
X70000Y98502D01*
X72999D01*
Y97502D02*
X70000D01*
Y96002D01*
X70500Y95503D01*
X72499D01*
X72999Y96002D01*
Y97502D01*
X40499Y164500D02*
X38500D01*
X37500Y163500D01*
X38500Y162501D01*
X40499D01*
X39999Y159502D02*
X40499Y160001D01*
Y161001D01*
X39999Y161501D01*
X38000D01*
X37500Y161001D01*
Y160001D01*
X38000Y159502D01*
X39999Y156503D02*
X40499Y157002D01*
Y158002D01*
X39999Y158502D01*
X38000D01*
X37500Y158002D01*
Y157002D01*
X38000Y156503D01*
X29499Y163001D02*
X29999Y163500D01*
Y164500D01*
X29499Y165000D01*
X27500D01*
X27000Y164500D01*
Y163500D01*
X27500Y163001D01*
X28499D01*
Y164000D01*
X27000Y162001D02*
X29999D01*
X27000Y160002D01*
X29999D01*
Y159002D02*
X27000D01*
Y157502D01*
X27500Y157003D01*
X29499D01*
X29999Y157502D01*
Y159002D01*
X19999Y164500D02*
X17000D01*
Y163001D01*
X17500Y162501D01*
X19499D01*
X19999Y163001D01*
Y164500D01*
Y160001D02*
Y161001D01*
X19499Y161501D01*
X17500D01*
X17000Y161001D01*
Y160001D01*
X17500Y159502D01*
X19499D01*
X19999Y160001D01*
X18499Y102001D02*
X18999Y102500D01*
Y103500D01*
X18499Y104000D01*
X17999D01*
X17500Y103500D01*
Y102500D01*
X17000Y102001D01*
X16500D01*
X16000Y102500D01*
Y103500D01*
X16500Y104000D01*
X18999Y101001D02*
X16000D01*
Y99501D01*
X16500Y99002D01*
X18499D01*
X18999Y99501D01*
Y101001D01*
X16000Y98002D02*
X17999D01*
X18999Y97002D01*
X17999Y96003D01*
X16000D01*
X17500D01*
Y98002D01*
X28999Y101501D02*
X29499Y102000D01*
Y103000D01*
X28999Y103500D01*
X28499D01*
X27999Y103000D01*
Y102000D01*
X27500Y101501D01*
X27000D01*
X26500Y102000D01*
Y103000D01*
X27000Y103500D01*
X28999Y98502D02*
X29499Y99001D01*
Y100001D01*
X28999Y100501D01*
X27000D01*
X26500Y100001D01*
Y99001D01*
X27000Y98502D01*
X29499Y97502D02*
X26500D01*
Y95503D01*
X38499Y104000D02*
X36500D01*
X35500Y103000D01*
X36500Y102001D01*
X38499D01*
X37999Y99002D02*
X38499Y99501D01*
Y100501D01*
X37999Y101001D01*
X36000D01*
X35500Y100501D01*
Y99501D01*
X36000Y99002D01*
X37999Y96003D02*
X38499Y96502D01*
Y97502D01*
X37999Y98002D01*
X36000D01*
X35500Y97502D01*
Y96502D01*
X36000Y96003D01*
X47999Y102501D02*
X48499Y103000D01*
Y104000D01*
X47999Y104500D01*
X46000D01*
X45500Y104000D01*
Y103000D01*
X46000Y102501D01*
X46999D01*
Y103500D01*
X45500Y101501D02*
X48499D01*
X45500Y99502D01*
X48499D01*
Y98502D02*
X45500D01*
Y97002D01*
X46000Y96503D01*
X47999D01*
X48499Y97002D01*
Y98502D01*
X89500Y134999D02*
Y133000D01*
X87501Y134999D01*
X87001D01*
X86501Y134500D01*
Y133500D01*
X87001Y133000D01*
X86501Y135999D02*
X89500D01*
X88500D01*
X86501Y137998D01*
X88001Y136499D01*
X89500Y137998D01*
X103000Y133500D02*
Y134500D01*
Y134000D01*
X100001D01*
X100501Y133500D01*
X100001Y135999D02*
X103000D01*
X102000D01*
X100001Y137998D01*
X101500Y136499D01*
X103000Y137998D01*
X135999Y135499D02*
X135500Y135999D01*
X134500D01*
X134000Y135499D01*
Y134999D01*
X134500Y134500D01*
X135500D01*
X135999Y134000D01*
Y133500D01*
X135500Y133000D01*
X134500D01*
X134000Y133500D01*
X138998Y135499D02*
X138499Y135999D01*
X137499D01*
X136999Y135499D01*
Y133500D01*
X137499Y133000D01*
X138499D01*
X138998Y133500D01*
X139998Y135999D02*
Y133000D01*
X141997D01*
X135499Y146499D02*
X135000Y146999D01*
X134000D01*
X133500Y146499D01*
Y145999D01*
X134000Y145500D01*
X135000D01*
X135499Y145000D01*
Y144500D01*
X135000Y144000D01*
X134000D01*
X133500Y144500D01*
X136499Y146999D02*
Y144000D01*
X137999D01*
X138498Y144500D01*
Y146499D01*
X137999Y146999D01*
X136499D01*
X139498Y144000D02*
Y145999D01*
X140498Y146999D01*
X141497Y145999D01*
Y144000D01*
Y145500D01*
X139498D01*
X134000Y154000D02*
Y156999D01*
X135500D01*
X135999Y156499D01*
Y155499D01*
X135500Y155000D01*
X134000D01*
X135000D02*
X135999Y154000D01*
X136999Y156999D02*
X138998Y154000D01*
Y156999D02*
X136999Y154000D01*
X134000Y166499D02*
X135999D01*
X135000D01*
Y163500D01*
X136999Y166499D02*
X138998Y163500D01*
Y166499D02*
X136999Y163500D01*
X135999Y175999D02*
X134000D01*
Y173000D01*
X135999D01*
X134000Y174499D02*
X135000D01*
X136999Y173000D02*
Y175999D01*
X138998Y173000D01*
Y175999D01*
X136499Y185999D02*
X136000Y186499D01*
X135000D01*
X134500Y185999D01*
Y185499D01*
X135000Y185000D01*
X136000D01*
X136499Y184500D01*
Y184000D01*
X136000Y183500D01*
X135000D01*
X134500Y184000D01*
X137499Y186499D02*
X139498D01*
X138499D01*
Y183500D01*
X140498D02*
Y185499D01*
X141498Y186499D01*
X142497Y185499D01*
Y183500D01*
Y185000D01*
X140498D01*
X143497Y186499D02*
X145496D01*
X144497D01*
Y183500D01*
X148495Y186499D02*
X146496D01*
Y183500D01*
X148495D01*
X146496Y185000D02*
X147496D01*
X135000Y125999D02*
X136999D01*
X136000D01*
Y123000D01*
X137999Y125999D02*
X138999D01*
X138499D01*
Y123000D01*
X137999D01*
X138999D01*
X140498Y125999D02*
Y123000D01*
X142498D01*
X143497Y125999D02*
X145497D01*
X144497D01*
Y123000D01*
X134000Y116499D02*
Y113500D01*
X135500D01*
X135999Y114000D01*
Y114500D01*
X135500Y114999D01*
X134000D01*
X135500D01*
X135999Y115499D01*
Y115999D01*
X135500Y116499D01*
X134000D01*
X136999D02*
Y114000D01*
X137499Y113500D01*
X138499D01*
X138998Y114000D01*
Y116499D01*
X139998D02*
X141997D01*
Y115999D01*
X139998Y114000D01*
Y113500D01*
X141997D01*
X142997Y116499D02*
X144996D01*
Y115999D01*
X142997Y114000D01*
Y113500D01*
X144996D01*
X147995Y116499D02*
X145996D01*
Y113500D01*
X147995D01*
X145996Y114999D02*
X146996D01*
X148995Y113500D02*
Y116499D01*
X150495D01*
X150995Y115999D01*
Y114999D01*
X150495Y114500D01*
X148995D01*
X149995D02*
X150995Y113500D01*
X134000Y103000D02*
Y105999D01*
X135500D01*
X135999Y105499D01*
Y104499D01*
X135500Y104000D01*
X134000D01*
X135000D02*
X135999Y103000D01*
X138998Y105999D02*
X136999D01*
Y103000D01*
X138998D01*
X136999Y104499D02*
X137999D01*
X139998Y105999D02*
Y103000D01*
X141498D01*
X141997Y103500D01*
Y105499D01*
X141498Y105999D01*
X139998D01*
X135999Y95999D02*
X135500Y96499D01*
X134500D01*
X134000Y95999D01*
Y94000D01*
X134500Y93500D01*
X135500D01*
X135999Y94000D01*
Y94999D01*
X135000D01*
X136999Y93500D02*
Y96499D01*
X138499D01*
X138998Y95999D01*
Y94999D01*
X138499Y94500D01*
X136999D01*
X137999D02*
X138998Y93500D01*
X141997Y96499D02*
X139998D01*
Y93500D01*
X141997D01*
X139998Y94999D02*
X140998D01*
X144996Y96499D02*
X142997D01*
Y93500D01*
X144996D01*
X142997Y94999D02*
X143997D01*
X145996Y93500D02*
Y96499D01*
X147995Y93500D01*
Y96499D01*
X134500Y86999D02*
Y84000D01*
X136000D01*
X136499Y84500D01*
Y85000D01*
X136000Y85500D01*
X134500D01*
X136000D01*
X136499Y85999D01*
Y86499D01*
X136000Y86999D01*
X134500D01*
X137499D02*
Y84000D01*
X139498D01*
X140498Y86999D02*
Y84500D01*
X140998Y84000D01*
X141998D01*
X142497Y84500D01*
Y86999D01*
X145496D02*
X143497D01*
Y84000D01*
X145496D01*
X143497Y85500D02*
X144497D01*
X134500Y76499D02*
X135500D01*
X135000D01*
Y73500D01*
X134500D01*
X135500D01*
X136999D02*
Y76499D01*
X138998Y73500D01*
Y76499D01*
X139998D02*
Y73500D01*
X141498D01*
X141998Y74000D01*
Y75999D01*
X141498Y76499D01*
X139998D01*
X142997D02*
X143997D01*
X143497D01*
Y73500D01*
X142997D01*
X143997D01*
X147496Y75999D02*
X146996Y76499D01*
X145996D01*
X145496Y75999D01*
Y74000D01*
X145996Y73500D01*
X146996D01*
X147496Y74000D01*
X148495Y73500D02*
Y75499D01*
X149495Y76499D01*
X150495Y75499D01*
Y73500D01*
Y74999D01*
X148495D01*
X151495Y76499D02*
X153494D01*
X152494D01*
Y73500D01*
X155993Y76499D02*
X154993D01*
X154493Y75999D01*
Y74000D01*
X154993Y73500D01*
X155993D01*
X156493Y74000D01*
Y75999D01*
X155993Y76499D01*
X157493Y73500D02*
Y76499D01*
X158992D01*
X159492Y75999D01*
Y74999D01*
X158992Y74500D01*
X157493D01*
X158492D02*
X159492Y73500D01*
X48499Y58999D02*
X48000Y59499D01*
X47000D01*
X46500Y58999D01*
Y57000D01*
X47000Y56500D01*
X48000D01*
X48499Y57000D01*
Y57999D01*
X47500D01*
X49499Y56500D02*
Y59499D01*
X51498Y56500D01*
Y59499D01*
X52498D02*
Y56500D01*
X53998D01*
X54497Y57000D01*
Y58999D01*
X53998Y59499D01*
X52498D01*
X51999Y86999D02*
X50000D01*
Y85500D01*
X51000Y85999D01*
X51499D01*
X51999Y85500D01*
Y84500D01*
X51499Y84000D01*
X50500D01*
X50000Y84500D01*
X52999Y86999D02*
Y85000D01*
X53999Y84000D01*
X54998Y85000D01*
Y86999D01*
X59499Y30000D02*
X59999Y29500D01*
Y28501D01*
X59499Y28001D01*
X58999D01*
X58499Y28501D01*
Y29000D01*
Y28501D01*
X58000Y28001D01*
X57500D01*
X57000Y28501D01*
Y29500D01*
X57500Y30000D01*
X59499Y27001D02*
X59999Y26501D01*
Y25501D01*
X59499Y25002D01*
X58999D01*
X58499Y25501D01*
Y26001D01*
Y25501D01*
X58000Y25002D01*
X57500D01*
X57000Y25501D01*
Y26501D01*
X57500Y27001D01*
X59499Y24002D02*
X59999Y23502D01*
Y22502D01*
X59499Y22003D01*
X57500D01*
X57000Y22502D01*
Y23502D01*
X57500Y24002D01*
X59499D01*
X57000Y20503D02*
Y19503D01*
X57500Y19004D01*
X58499D01*
X58999Y19503D01*
Y20503D01*
X58499Y21003D01*
X57500D01*
X57000Y20503D01*
X59999Y18004D02*
X57000D01*
X58499D01*
X58999Y17504D01*
Y16504D01*
X58499Y16004D01*
X57000D01*
Y15005D02*
X58999D01*
Y14505D01*
X58499Y14005D01*
X57000D01*
X58499D01*
X58999Y13505D01*
X58499Y13005D01*
X57000D01*
X132500Y9999D02*
X136499D01*
X122500Y10499D02*
X126499D01*
X124499Y12498D02*
Y8500D01*
X106000Y9999D02*
X109999D01*
X96500Y10125D02*
X100499D01*
X98499Y12124D02*
Y8126D01*
X79500Y9625D02*
X83499D01*
X69000Y9499D02*
X72999D01*
X70999Y11498D02*
Y7500D01*
X28500Y8999D02*
X32499D01*
X20000Y9499D02*
X23999D01*
X21999Y11498D02*
Y7500D01*
M02*
